<svg version="1.1" xmlns="http://www.w3.org/2000/svg" xmlns:xlink="http://www.w3.org/1999/xlink" width="512" height="512" viewBox="0 0 512 512"><defs/><g transform="scale(1,1)"><g transform="scale(1,1)"><rect fill="rgb(255,255,255)" stroke="none" x="0" y="0" width="512" height="512" fill-opacity="1"/></g><g transform="translate(256,256)"><path fill="none" stroke="rgb(0,0,0)" paint-order="fill stroke markers" d=" M 181.91953914613993 0 C 179.13306453706292 3.478283445835157 170.16371842302402 14.359156281154196 165.20069149167793 20.869700675010943 C 160.23766456033184 27.38024506886769 157.06814604658777 33.59093197406005 152.14137755806328 39.06326636314048 C 147.2146090695388 44.53560075222091 139.37148875180313 48.32553873180536 135.64008056053098 53.70370700949354 C 131.90867236925882 59.081875287181724 134.51661745800124 67.31920204255556 129.75292841043043 71.33227602926958 C 124.9892393628596 75.3453500159836 112.2431564323391 74.23241502972141 107.05794627510608 77.78215092977767 C 101.87273611787305 81.33188682983393 100.03175991000863 85.70624527801694 98.64166746703224 92.63069142960711 C 97.25157502405584 99.55513758119729 101.67139434301646 113.51630714857235 98.71739161724771 119.32882783931873 C 95.76338889147897 125.14134853006512 86.43591451361918 124.15667090973278 80.91765111241975 127.50581557408537 C 75.39938771122031 130.85496023843797 71.92885389857105 138.6223469920909 65.6078112100511 139.42369582543432 C 59.28676852153114 140.22504465877773 49.31779119944041 131.39395647438647 42.991394981300004 132.3139085741458 C 36.6649987631596 133.23386067390516 33.09173146671161 139.61045998979316 27.649433901208702 144.9434084239904 C 22.207136335705794 150.27635685818765 16.84629492927539 158.2621040646836 10.337609588282561 164.31159917932928 C 3.82892424728973 170.36109429397496 -3.174945996353694 174.52630447225033 -11.40267814474829 181.24037911186446 C -19.630410293142887 187.95445375147858 -30.378935079729807 202.33230892835084 -39.02878330208502 204.59604701701397 C -47.67863152444023 206.8597851056771 -55.68142694716284 198.90470313654635 -63.30176747887954 194.8228076438433 C -70.92210801059625 190.74091215114026 -76.82430588444177 183.46034001029247 -84.75082649238522 180.1046740607958 C -92.67734710032866 176.7490081112991 -102.59224872643155 177.63682748299075 -110.86089112654017 174.68881194686318 C -119.12953352664879 171.7407964107356 -131.2290613449611 171.237833840338 -134.36268089303692 162.4165808440304 C -137.49630044111274 153.59532784772279 -130.9486782890138 133.4950749262162 -129.66260841499505 121.76129396901747 C -128.3765385409763 110.02751301181873 -125.1024335567545 99.57828038788574 -126.64626164892437 92.01389510083791 C -128.19008974109423 84.44950981379009 -136.6658634683843 82.45881386445276 -138.9255769680142 76.37498224673055 C -141.18529046764414 70.29115062900834 -136.4474428955225 61.3304055939256 -140.2045426467039 55.51090539450464 C -143.96164239788533 49.69140519508368 -156.89122730787878 47.17960347749697 -161.4681754751026 41.45798105020479 C -166.04512364232644 35.73635862291262 -167.03629770378598 28.090834339119066 -167.66623165004694 21.181170830751594 C -168.2961655963079 14.271507322384121 -164.38280294112087 7.169662184092606 -165.2477791526683 -5.314773929283372e-14 C -166.11275536421573 -7.169662184092712 -169.569570509986 -13.921564713057762 -172.85608891933154 -21.836802273804363 C -176.1426073286771 -29.752039834550963 -182.39174302216625 -38.7048919006632 -184.96688960874164 -47.49142536447965 C -187.54203619531702 -56.27795882829611 -189.28521414674032 -66.06130106904769 -188.30696843878383 -74.5560030567031 C -187.32872273082734 -83.05070504435852 -185.9651874598921 -93.07319615393115 -179.09741536100267 -98.45963729041212 C -172.22964326211326 -103.84607842689309 -155.6783833069763 -103.30930089251254 -147.10033584544723 -106.8746498755889 C -138.52228838391818 -110.43999885866526 -134.38452384317867 -116.19441373559924 -127.62913059182836 -119.8517311888703 C -120.87373734047803 -123.50904864214137 -111.73294662883637 -123.41397911035688 -106.56797633734529 -128.8185545952153 C -101.4030060458542 -134.2231300800737 -101.21983804520117 -145.7383169905713 -96.63930884288187 -152.27918409802078 C -92.05877964056258 -158.82005120547026 -84.70239455478617 -161.1619277668572 -79.0848011234295 -168.0637572399122 C -73.46720769207283 -174.96558671296722 -69.54745951460058 -187.2749013921836 -62.9337482547419 -193.69016093635088 C -56.32003699488322 -200.10542048051815 -48.040438356799044 -209.4153591048276 -39.40253356427741 -206.5553145049159 C -30.76462877175578 -203.69526990500424 -19.331412850506123 -184.60255342682314 -11.106319499612118 -176.52989333688092 C -2.8812261487181132 -168.4572332469387 4.000181456581366 -166.064867964322 9.94802654108662 -158.11935396526263 C 15.895871625591873 -150.17383996620327 19.70462418633022 -135.10004684214292 24.5807510074194 -128.85680934252483 C 29.45687782850858 -122.61357184290674 33.12407326385951 -120.50776259355857 39.2047874676217 -120.65992896755408 C 45.28550167138389 -120.8120953415496 54.65862002345204 -129.48875579479378 61.065036229992565 -129.76980758649793 C 67.4714524365331 -130.0508593782021 73.28102829688665 -126.39898735790491 77.64328470686488 -122.34623971777899 C 82.0055411168431 -118.29349207765306 82.80178616498588 -109.52595703263158 87.23857468986193 -105.45332174574239 C 91.67536321473798 -101.38068645885319 95.55717471844336 -98.59633548383192 104.2640158561212 -97.91042799644383 C 112.97085699379905 -97.22452050905574 129.71632003699423 -102.73558978314898 139.47962151592898 -101.33787682141384 C 149.24292299486373 -99.9401638596787 157.25087325432094 -94.99540875286415 162.8438247297297 -89.52415022603297 C 168.43677620513847 -84.0528916992018 169.45049731084384 -75.54154387267133 173.03733036838156 -68.51032566042676 C 176.62416342591928 -61.47910744818219 182.73158528463696 -54.905619582162394 184.36482307495606 -47.336840952565545 C 185.99806086527516 -39.768062322968696 183.24430443176547 -30.987127374939927 182.8367571102961 -23.09765388284567 C 182.42920978882674 -15.208180390751412 182.0724088068326 -3.849608980474278 181.91953914613993 0 L 181.91953914613993 0" stroke-opacity="1" stroke-linecap="round" stroke-miterlimit="10" stroke-width="2"/></g><g transform="translate(256,256)"><path fill="none" stroke="rgb(0,0,0)" paint-order="fill stroke markers" d=" M 163.43312745256486 0 C 160.98027884514985 3.131200728100542 153.1014129490993 12.919428680799982 148.71603580807476 18.787204368603252 C 144.33065866705022 24.654980056406522 141.5346033333273 30.271903651455325 137.12086460641754 35.20665412681962 C 132.70712587950777 40.14140460218392 125.65007522023875 43.57789862188109 122.2336034466162 48.395707220789035 C 118.81713167299365 53.21351581969698 120.88404085081223 60.47466763860573 116.62203396468225 64.11350572026731 C 112.36002707855226 67.7523438019289 101.31282815846261 67.02958628813413 96.66156212983631 70.22873571075853 C 92.01029610121002 73.42788513338293 90.01461952462583 77.11088179236484 88.7144377929245 83.30840225601374 C 87.41425606122317 89.50592271966264 91.47503415734052 102.1198857530316 88.86047173962831 107.41385849265197 C 86.2459093219161 112.70783123227234 78.00135932699992 112.07244648614498 73.02706328665126 115.07223869373598 C 68.0527672463026 118.07203090132698 64.71890541445308 124.68803940011024 59.0146954975363 125.41261173819797 C 53.31048558061952 126.13718407628569 44.48833637944539 118.57064451430945 38.80180378515057 119.41967272226232 C 33.115271190855744 120.26870093021519 29.81508108065971 125.81506124273963 24.89549993176736 130.50678098591516 C 19.975918782875013 135.19850072909068 15.14807659998204 142.06976972288246 9.284316891796482 147.5699911813155 C 3.4205571836109234 153.07021263974852 -2.8862740835024603 157.41852093072134 -10.287058317345991 163.50810973651335 C -17.687842551189522 169.59769854230535 -27.31412378172093 182.0569448556614 -35.1203885112647 184.10752401606746 C -42.92665324080847 186.1581031764735 -50.23915156192167 179.42464594062955 -57.12464669460861 175.8115846989496 C -64.01014182729554 172.19852345726963 -69.28557632557448 165.4656436486199 -76.43335930738631 162.42915656598777 C -83.58114228919814 159.39266948335563 -92.62901129227396 160.34180361000725 -100.01134458547958 157.5926622031567 C -107.3936778786852 154.84352079630614 -117.9411160126573 153.93047813190356 -120.72735906661998 145.9343081248844 C -123.51360212058266 137.93813811786526 -117.77320030587133 120.07789919735636 -116.72880290925565 109.61564216104176 C -115.68440551263997 99.15338512472717 -113.08905966574059 89.98045586115128 -114.46097468692594 83.16076590699682 C -115.83288970811128 76.34107595284235 -122.92463732967748 74.19860601126003 -124.96029303636769 68.69750243611495 C -126.9959487430579 63.19639886096987 -123.33112075564 55.39779764299216 -126.67490892706718 50.15414445612636 C -130.01869709849436 44.91049126926056 -141.02388599469813 42.422271931955024 -145.02302206493073 37.23558331492015 C -149.02215813516332 32.048894697885274 -149.9891699600733 25.239943306403802 -150.66972534846275 19.034012753917104 C -151.3502807368522 12.828082201430405 -148.24832142992898 6.4530656891698035 -149.10635439526743 -4.7956261142748214e-14 C -149.96438736060588 -6.453065689169899 -152.91329468525186 -12.557932073675413 -155.81792314049355 -19.68438138110201 C -158.72255159573524 -26.810830688528608 -164.21551436535125 -34.8393097921499 -166.53412512671756 -42.75869584455963 C -168.85273588808386 -50.67808189696937 -170.56169131279745 -59.52578149090643 -169.7295877086913 -67.20069769556041 C -168.89748410458515 -74.87561390021438 -167.6736006428905 -83.91091142520531 -161.5415035020806 -88.80819307248348 C -155.40940636127067 -93.70547471976164 -140.70080020925738 -93.39351402434133 -132.93700486383182 -96.58438757922939 C -125.17320951840624 -99.77526113411744 -121.08434935598203 -104.67322666175326 -114.95873142952713 -107.95343440181186 C -108.83311350307224 -111.23364214187046 -100.82036750707236 -111.37373069469682 -96.18329730510241 -116.26563401958103 C -91.54622710313247 -121.15753734446524 -91.27732057748469 -131.41590311102482 -87.13631021770746 -137.30485435111714 C -82.99529985793023 -143.19380559120947 -76.40581831735757 -145.3866475927218 -71.33723514643901 -151.59934146013504 C -66.26865197552046 -157.81203532754827 -62.716128195200895 -168.9280109535694 -56.72481119219613 -174.5810175555965 C -50.73349418919136 -180.2340241576236 -43.17351574995906 -188.07108120691345 -35.3893331284104 -185.51738107229764 C -27.605150506861744 -182.96368093768183 -17.40843596972829 -166.4875878927831 -10.019715462904191 -159.2588167479017 C -2.630994956080091 -152.0300456030203 3.574073961286053 -149.29724526082686 8.942989912534205 -142.1447542030092 C 14.311905863782357 -134.99226314519154 17.785668939255157 -121.88060903589316 22.193780244584726 -116.34387040099571 C 26.601891549914296 -110.80713176609827 29.94895443321219 -108.88793687104133 35.39165774451162 -108.92432239362455 C 40.834361055811044 -108.96070791620777 49.08574615938008 -116.3385049460654 54.85000011238129 -116.56218353649498 C 60.6142540653825 -116.78586212692457 65.96701186785192 -113.79558543643716 69.97718146251889 -110.26639393620206 C 73.98735105718585 -106.73720243596696 74.90476706587782 -99.0504892210882 78.91101768038304 -95.38703453508437 C 82.91726829488826 -91.72357984908054 86.25081165272238 -88.98735225303054 94.01468514955017 -88.28566582017908 C 101.77855864637797 -87.58397938732762 116.73439329152032 -92.46124841245874 125.49425866134985 -91.17691593797565 C 134.25412403117937 -89.89258346349256 141.48485036748693 -85.47981997781426 146.57387736852735 -80.57967097328049 C 151.66290436956777 -75.67952196874671 152.7999492418772 -68.10474062048053 156.02842066759234 -61.77602191077304 C 159.2568920933075 -55.44730320106555 164.50904805256133 -49.43683436660942 165.94470592281834 -42.60735871503554 C 167.38036379307536 -35.77788306346166 165.0609643008433 -27.900394453835673 164.6423678891344 -20.79916800132975 C 164.2237714774255 -13.697941548823827 163.63466752532645 -3.466528000221625 163.43312745256486 0 L 163.43312745256486 0" stroke-opacity="1" stroke-linecap="round" stroke-miterlimit="10" stroke-width="2"/></g><g transform="translate(256,256)"><path fill="none" stroke="rgb(0,0,0)" paint-order="fill stroke markers" d=" M 144.78045317667323 0 C 142.67997865118616 2.7829858022458347 135.9568126124487 11.472699773928014 132.17760602375085 16.69791481347501 C 128.39839943505302 21.923129853022004 125.99663890196469 26.95286423300086 122.10521364448621 31.351290237281972 C 118.21378838700774 35.749716241563085 111.9467272890394 38.83965613376733 108.82905447888 43.088470839161694 C 105.71138166872059 47.33728554455606 107.14974514906767 53.57238163767685 103.39917678352975 56.844178469648156 C 99.64860841799184 60.115975301619464 90.43644494751732 59.87053200474328 86.32564428565253 62.71925183098953 C 82.21484362378774 65.56797165723577 79.95994694866306 68.47954096369016 78.73437281234105 73.93649742712563 C 77.50879867601904 79.3934538905611 81.23335061461198 90.66915768606648 78.97219946772051 95.46099061160238 C 76.71104832082905 100.25282353713828 69.5980017057861 100.04228344524559 65.16746593099225 102.68749498034103 C 60.7369301561984 105.33270651543647 57.477979050898924 110.68168324478407 52.38898481895741 111.33225982217502 C 47.2999905870159 111.98283639956597 39.675752611065654 105.80662942907901 34.63350053934318 106.59095444468676 C 29.59124846762071 107.37527946029451 26.537546168691858 112.02504018948004 22.135472388622585 116.03820991582147 C 17.733398608553312 120.0513796421629 13.439465651078763 125.7043342096326 8.221057858927548 130.66997280273532 C 3.002650066776332 135.63561139583803 -2.60543510559813 140.35435519210372 -9.174974364284708 145.83204147443777 C -15.744513622971287 151.30972775677182 -24.229740192309325 161.6946628074253 -31.19617769319192 163.53609049673966 C -38.16261519407452 165.37751818605403 -44.81667434083611 160.00328229516919 -50.97359936958028 156.88060761032403 C -57.13052439832445 153.75793292547888 -61.76731551032808 147.5217233331096 -68.13772786565693 144.80004238766878 C -74.50814022098578 142.07836144222796 -82.72232547142558 143.13105120194322 -89.19607350155336 140.55052193767912 C -95.66982153168114 137.96999267341502 -104.55261297426959 136.50216805238853 -106.9802160464236 129.31686680208418 C -109.40781911857762 122.13156555177983 -104.52737449065854 106.59354707406311 -103.76169193447747 97.43871443585306 C -102.99600937829639 88.283881797643 -101.19201952965403 80.46394855668439 -102.38612070933713 74.38787097282386 C -103.58022188902024 68.31179338896334 -109.1160186796926 65.90723125710122 -110.92629901257605 60.982248932689956 C -112.7365793454595 56.057266608278695 -110.3320592693487 49.50621070849163 -113.24780270663783 44.83797702635628 C -116.16354614392695 40.169743344220926 -125.04011020369599 37.63434691498463 -128.4207596363108 32.97284683987784 C -131.80140906892564 28.31134676477105 -132.76433135428664 22.364451049028517 -133.53169930232676 16.868976575715536 C -134.29906725036687 11.373502102402554 -132.14666041395492 5.7339481580057265 -133.02496732455148 -4.278409258542115e-14 C -133.90327423514805 -5.733948158005812 -136.29643869554408 -11.199010407668652 -138.80154076590614 -17.534712372319074 C -141.3066428362682 -23.870414336969496 -145.995795641845 -30.961901355174366 -148.05557974672385 -38.014211787902575 C -150.1153638516027 -45.06652222063078 -151.830393826587 -52.986986859688315 -151.1602453951793 -59.84857496868832 C -150.49009696377158 -66.71016307768832 -149.41162181209896 -74.76101537601862 -144.0346891582775 -79.18374044190261 C -138.65775650445605 -83.60646550778661 -125.85825274785293 -83.57478857485617 -118.89864947225058 -86.38492536399225 C -111.93904619664823 -89.19506215312833 -107.78528994619819 -93.14638047879983 -102.27706950466346 -96.0445611767191 C -96.76884906312873 -98.94274187463837 -89.95327295229171 -99.38774184557958 -85.84932682304218 -103.7740095515079 C -81.74538069379264 -108.16027725743622 -81.35917557447289 -117.12650740143208 -77.65339272916621 -122.36216741228898 C -73.94760988385954 -127.59782742314589 -68.13717675423304 -129.66853790796694 -63.61462975120218 -135.1879696166493 C -59.09208274817132 -140.70740132533166 -55.89766791421962 -150.6307844449101 -50.51811071098105 -155.47875766438315 C -45.13855350774248 -160.32673088385621 -38.26759434831916 -166.5159608956304 -31.337286531770747 -164.2758089334877 C -24.406978715222337 -162.035656971345 -15.480999009310104 -148.4068779680355 -8.936263811690576 -142.03784589152693 C -2.39152861407105 -135.66881381501835 3.13812985729432 -132.41642140067694 7.9311246539464095 -126.06161647443619 C 12.724119450598499 -119.70681154819543 15.876593906328008 -108.70923374918013 19.82170496822196 -103.90901633408238 C 23.766816030115915 -99.10879891898463 26.808712216658467 -97.37212588303134 31.60179102531013 -97.26031198384973 C 36.39486983396179 -97.14849808466812 43.461834204980974 -103.08355684159112 48.580177820131944 -103.23813293899266 C 53.69852143528291 -103.39270903639421 58.62860660491127 -101.15461977898443 62.31185271621595 -98.18776856825903 C 65.99509882752064 -95.22091735753364 67.0998267428179 -88.68751766429855 70.67965448796005 -85.43702567464025 C 74.2594822331022 -82.18653368498195 76.99653556440173 -79.4293557685133 83.79081918706892 -78.68481663030927 C 90.58510280973611 -77.94027749210524 103.70359345488853 -82.15045807547367 111.44535622396319 -80.96979084541609 C 119.18711899303784 -79.7891236153585 125.6422066536809 -75.92077425956197 130.2413958015168 -71.60081324996378 C 134.84058494935272 -67.28085224036559 136.17148782438417 -60.67347436187028 139.0404911109786 -55.050024787827 C 141.909494397573 -49.42657521378372 146.22701669732498 -43.95245394030405 147.45541552108335 -37.860115805704126 C 148.68381434484172 -31.7677776711042 146.8567111109305 -24.806015281178126 146.4108840535288 -18.495995980227438 C 145.96505699612712 -12.185976679276749 145.05219165614915 -3.082665996704573 144.78045317667323 0 L 144.78045317667323 0" stroke-opacity="1" stroke-linecap="round" stroke-miterlimit="10" stroke-width="2"/></g><g transform="translate(256,256)"><path fill="none" stroke="rgb(0,0,0)" paint-order="fill stroke markers" d=" M 126.08666740141513 0 C 124.34194141855052 2.434331571552929 118.78539455260719 10.023565843654637 115.61831150422745 14.605989429317573 C 112.45122845584771 19.188413014980508 110.44997783381675 23.632069722024678 107.0841691111367 27.494541513977612 C 103.71836038845666 31.357013305930547 98.24296430906733 34.10160981062628 95.42345916814718 37.780820181035175 C 92.60395402722702 41.46003055144407 93.40469791018202 46.66396499282784 90.16713826561576 49.569803736431005 C 86.9295786210495 52.47564248003417 79.56777094290008 52.7175330508075 75.99810130074962 55.215852642654134 C 72.42843165859917 57.714172234500765 69.90273152304081 59.84585243046481 68.74912041271303 64.55972128751081 C 67.59550930238524 69.2735901445568 70.98386637767952 79.20943758594129 69.0764346387829 83.49906578493014 C 67.16900289988628 87.78869398391899 61.19071211996263 88.00674290445502 57.30452997933332 90.2974904814439 C 53.418347838704 92.58823805843278 50.231597078689745 96.66311803391278 45.75934179500701 97.24355124686339 C 41.287086511324276 97.823984459814 34.86845044570416 93.05978814983905 30.47099827723691 93.78008975914753 C 26.07354610876965 94.50039136845601 23.260457354904744 98.23841090934248 19.374628784203473 101.56536090271426 C 15.4888002135022 104.89231089608604 11.728945997517464 109.31003246768714 7.156026853029273 113.7417897193782 C 2.583107708541081 118.17354697106927 -2.3254129799090837 123.28818314858592 -8.062886082725674 128.15590441286062 C -13.800359185542264 133.02362567713533 -21.141674065289408 141.31420858908766 -27.26881176387027 142.94811730502644 C -33.395949462451135 144.58202602096523 -39.39589628117109 140.5869007885016 -44.82571227421085 137.95935670849335 C -50.25552826725061 135.3318126284851 -54.254952440514316 129.59097007881516 -59.84770772210885 127.18285282497693 C -65.44046300370339 124.7747355711387 -72.8213215681432 125.92855298922265 -78.38224396377808 123.51065318546395 C -83.94316635941296 121.09275338170525 -91.14488325272481 119.05060689041265 -93.2132420959181 112.67545400242476 C -95.2816009391114 106.30030111443686 -91.27258653695358 93.10062553538471 -90.79239702293782 85.25973585753658 C -90.31220750892206 77.41884617968846 -89.31635485876019 70.96273476496451 -90.3321050118235 65.630115935336 C -91.34785516488681 60.29749710570748 -95.30415507731368 57.61488822709794 -96.88689794131766 53.26402287976549 C -98.46964080532163 48.91315753243304 -97.34564505625426 43.618701682990284 -99.82856219584735 39.52492385134129 C -102.31147933544045 35.4311460196923 -109.02998524502704 32.838999560493285 -111.78440077887623 28.70135588987155 C -114.53881631272543 24.563712219249815 -115.49484659261256 19.482621142589473 -116.35505539894254 14.699061827610874 C -117.21526420527252 9.915502512632276 -116.03908170240423 5.014213942339661 -116.9456536168561 -3.7612590872500953e-14 C -117.85222553130798 -5.014213942339736 -119.69085203005723 -9.841676800113525 -121.79448688565375 -15.386221826427317 C -123.89812174125028 -20.930766852741108 -127.7697833513177 -27.08291405814187 -129.56746275043523 -33.26727015788279 C -131.36514214955275 -39.45162625762371 -133.08615047887702 -46.44313312901688 -132.5805632803589 -52.49235842487283 C -132.07497608184076 -58.54158372072879 -131.15006913485306 -65.6109265202196 -126.53393955932648 -69.56262193301853 C -121.91780998379991 -73.51431734581746 -111.0393706789525 -73.77290043390549 -104.88378582719947 -76.20253090166639 C -98.72820097544646 -78.6321613694273 -94.49346598586845 -81.62503748568918 -89.60043044880835 -84.14040473958391 C -84.70739491174825 -86.65577199347865 -79.09595180318765 -87.41287150737679 -75.5255726048389 -91.29473442503483 C -71.95519340649015 -95.17659734269287 -71.44936894308964 -102.84905231569073 -68.1781552587159 -107.43158224553211 C -64.90694157434217 -112.0141121753735 -59.87677822565512 -113.96790621963932 -55.89829049859649 -118.78991400408319 C -51.91980277153785 -123.61192178852706 -49.07760273156807 -132.3309399035479 -44.30722889636409 -136.36362895219534 C -39.536855061160104 -140.3963180008428 -33.351877421736305 -144.91199837666647 -27.276047487372583 -142.9860482959679 C -21.200217553008862 -141.0600982152693 -13.551264748710786 -130.31240640443468 -7.8522492901817635 -124.80792846800387 C -2.1532338316527424 -119.30345053157305 2.7004336451964894 -115.51149642745314 6.91804526380154 -109.95918067738295 C 11.13565688240659 -104.40686492731275 13.969701415341135 -95.55018711093268 17.45342042144854 -91.49403396758271 C 20.937139427555948 -87.43788082423274 23.67862821515758 -85.88790650031973 27.820359300445983 -85.6222618172831 C 31.962090385734385 -85.35661713424648 37.83371273903612 -89.82048954009183 42.30380693317895 -89.90016586936294 C 46.77390112732177 -89.97984219863405 51.28086682650297 -88.49931576474822 54.64092446530292 -86.10031979290976 C 58.000982104102874 -83.7013238210713 59.307564284311724 -78.34013553962643 62.46415276597865 -75.50619003833218 C 65.62074124764558 -72.67224453703793 67.76086546865622 -69.88902166661526 73.5804553553045 -69.09664678514429 C 79.40004524195277 -68.30427190367331 90.66481714130744 -71.83354902438745 97.38169208586832 -70.75194074950632 C 104.09856703042921 -69.67033247462518 109.7728974969184 -66.34617203841958 113.88170502266983 -62.6069971358575 C 117.99051254842126 -58.86782223329541 119.52509969144265 -53.233768122793606 122.03453724037695 -48.31689133413379 C 124.54397478931125 -43.40001454547398 127.91560141536331 -38.45992638012726 128.93833031627562 -33.10573640389862 C 129.96105921718794 -27.751546427669975 128.64618779832756 -21.709374210745047 128.17091064585082 -16.191751476761944 C 127.69563349337407 -10.67412874277884 126.43404127548774 -2.6986252461269906 126.08666740141513 0 L 126.08666740141513 0" stroke-opacity="1" stroke-linecap="round" stroke-miterlimit="10" stroke-width="2"/></g><g transform="translate(256,256)"><path fill="none" stroke="rgb(0,0,0)" paint-order="fill stroke markers" d=" M 107.470158358556 0 C 106.07026839032565 2.085925821577383 101.64095327126468 8.576512248315378 99.07081854917386 12.5155549294643 C 96.50068382708305 16.45459761061322 94.89210533007909 20.308223035820586 92.0493500260111 23.63425608689353 C 89.2065947219431 26.960289137966473 84.52227785071203 29.35548263817789 82.01428672476592 32.47175323590196 C 79.50629559881982 35.588023833626025 79.7319512708259 39.79655325807734 77.00140327033444 42.33187967323794 C 74.27085526984297 44.86720608839855 68.66421110679987 45.535879244239915 65.63099872181708 47.68371172686559 C 62.5977863368343 49.83154420949126 59.87467410505726 51.24026935564209 58.802128960437734 55.218874568992 C 57.72958381581821 59.19747978234191 60.761399080417384 67.78270370757951 59.195727854099935 71.55534300696503 C 57.63005662778249 75.32798230635055 52.748716393135425 75.91354781488872 49.40810160253305 77.85471036530514 C 46.06748681193068 79.79587291572156 43.003468852880545 82.68783513223721 39.15203911048569 83.2023183094636 C 35.30060936809083 83.71680148669 30.055226006222934 80.28971690628283 26.299523148163903 80.94160942866353 C 22.543820290104872 81.59350195104422 19.984936353885793 84.45286736756037 16.6178219621315 87.11367344374777 C 13.25070757037721 89.77447951993517 10.024411782096564 93.0204941390397 6.096836797638159 96.90644588578796 C 2.1692618131797525 100.79239763253622 -2.0398032037888703 106.17952958939253 -6.947627944618935 110.42938392423734 C -11.855452685448999 114.67923825908215 -18.064722163805218 120.97994632325994 -23.35011164734223 122.40557189485686 C -28.635501130879245 123.83119746645379 -33.96034113425101 121.12660505838168 -38.65996484584101 118.98313735381886 C -43.35958855743101 116.83966964925604 -46.73447650972041 111.63755993251019 -51.54785391688221 109.5447656674799 C -56.36123132404401 107.4519714024496 -62.879558215275125 108.66494058429078 -67.5402292888118 106.42637176363714 C -72.20090036234848 104.1878029429835 -77.7937288225647 101.6668801912549 -79.51188035810225 96.11335274355804 C -81.23003189363979 90.55982529586117 -78.06519852185815 79.65294890074472 -77.84913850203706 73.10520707745592 C -77.63307848221598 66.55746525416711 -77.37377547185582 61.41536220482581 -78.21552023917577 56.82690180382525 C -79.05726500649573 52.23844140282469 -81.54698314593925 49.348767396719154 -82.89960710595679 45.57444467145256 C -84.25223106597433 41.80012194618597 -84.27630388963456 37.70158191960745 -86.33126399928102 34.18096545222571 C -88.38622410892748 30.660348984843978 -93.07825542406735 28.058128937433096 -95.22936776383558 24.45074586716216 C -97.38048010360382 20.84336279689122 -98.30680237695617 16.61179134179378 -99.23793803789046 12.536667030600082 C -100.16907369882475 8.461542719406385 -99.89182484530708 4.295662440835057 -100.81618172944133 -3.24249570586061e-14 C -101.74053861357557 -4.295662440835123 -103.06950208065605 -8.482879682536069 -104.78407934269589 -13.237307614410458 C -106.49865660473573 -17.991735546284847 -109.57170669866707 -23.21175614498068 -111.10364530168037 -28.526567591246366 C -112.63558390469368 -33.84137903751205 -114.32635842106498 -39.893416649756894 -113.97571096077567 -45.12617629200457 C -113.62506350048636 -50.35893593425225 -112.86273124614463 -56.449400467118096 -108.99976053994453 -59.92312544473244 C -105.13678983374443 -63.39685042234679 -96.14074783553984 -63.91339623149139 -90.79788672357506 -65.96852615769066 C -85.45502561161028 -68.02365608388993 -81.21320681774095 -70.11831180909256 -76.94259386815584 -72.25390500192805 C -72.67198091857072 -74.38949819476353 -68.2149275953447 -75.40878732197137 -65.17420902606437 -78.78208531470356 C -62.13349045678404 -82.15538330743576 -61.53223769260697 -88.56279457388277 -58.69828245247383 -92.49369295832115 C -55.8643272123407 -96.42459134275953 -51.60567953267413 -98.24643266739213 -48.170477585265566 -102.36747562133384 C -44.735275637857 -106.48851857527555 -42.243218100509765 -113.98206947726959 -38.08707076802243 -117.21995068197141 C -33.93092343553509 -120.45783188667323 -28.454032555396385 -123.41181348229863 -23.233593590341542 -121.79476284954478 C -18.0131546252867 -120.17771221679094 -11.621530578178088 -112.16338118425463 -6.764436977693377 -107.51764688544834 C -1.9073433772086643 -102.87191258664205 2.2684955432299696 -98.66600994135328 5.908968012566734 -93.92035705670708 C 9.549440481903499 -89.17470417206087 12.0577642117923 -82.36957910713583 15.078397838327211 -79.04372957757111 C 18.099031464862122 -75.71788004800639 20.534986811473203 -74.36550990465317 24.0327697717762 -73.96525987931872 C 27.530552732079194 -73.56500985398428 32.24395682778112 -76.63702390608901 36.06509560014519 -76.64222942556442 C 39.886234372509264 -76.64743494503983 43.938764582051625 -75.85276363402156 46.95960240596063 -73.99649299617116 C 49.980440229869636 -72.14022235832076 51.45493800554339 -67.91917820038815 54.19012254359923 -65.504605598462 C 56.92530708165507 -63.09003299653587 58.51086345008619 -60.3337019476741 63.37070963429568 -59.50905738461434 C 68.23055581850517 -58.684412821554574 77.65587495196722 -61.53859230661191 83.34919964885617 -60.55673822010342 C 89.04252434574512 -59.57488413359493 93.92578612537307 -56.78340578997696 97.53065781562937 -53.617932865563404 C 101.13552950588567 -50.45245994114985 102.82774578525658 -45.77441823292061 104.978429790394 -41.56390067362207 C 107.12911379553142 -37.353383114323535 109.60628641298277 -32.96717353786276 110.43476184645392 -28.35482750977217 C 111.26323727992508 -23.742481481681576 110.44338297253721 -18.61562909004054 109.94928239122089 -13.88982450507851 C 109.45518180990457 -9.16401992011648 107.88334569733348 -2.314970750846418 107.470158358556 0 L 107.470158358556 0" stroke-opacity="1" stroke-linecap="round" stroke-miterlimit="10" stroke-width="2"/></g><g transform="translate(256,256)"><path fill="none" stroke="rgb(0,0,0)" paint-order="fill stroke markers" d=" M 89.03600731395437 0 C 87.95787666740226 1.7384443360865383 84.57389088734499 7.13579711820949 82.56722343464173 10.430666016519229 C 80.56055598193848 13.725534914828968 79.32389176921389 16.980888189238083 76.9960025977348 19.76921338985843 C 74.66811342625572 22.557538590478774 70.77199869062211 24.594795414667225 68.59988840576723 27.16061722024131 C 66.42777812091235 29.726439025815395 66.19924004888837 33.00860019775148 63.96334088860555 35.16414422330294 C 61.72744172832273 37.319688248854405 57.6902656908567 38.296719646623686 55.1844934440703 40.0938813735501 C 52.6787211972839 41.89104310047651 49.90111931093374 42.68710662756616 48.92870740788715 45.94711458486142 C 47.95629550484057 49.207122542156675 50.59547066673032 56.424410247291455 49.3500220257908 59.65392911732165 C 48.10457338485128 62.88344798735185 44.2495690802785 63.724130212494536 41.45601556225004 65.3242278050426 C 38.66246204422158 66.92432539759065 35.813749074516394 68.80281415705804 32.588700917620045 69.25451467261 C 29.363652760723696 69.70621518816196 25.22566396174626 67.45947549952992 22.10572662087195 68.03443089835433 C 18.985789279997636 68.60938629717874 16.711704140796186 70.66550829399739 13.869076872374178 72.70424706555646 C 11.026449603952171 74.74298583711553 8.332601752499357 76.94863339366628 5.049963010339907 80.26686352770875 C 1.7673242681804564 83.58509366175122 -1.7433855286553843 88.9978018789465 -5.826755580582522 92.61362786981127 C -9.91012563250966 96.22945386067603 -15.011544258613007 100.7476517727965 -19.45025730122292 101.96181947289736 C -23.88897034383283 103.17598717299822 -28.496690847914042 101.58287971974491 -32.45903383624199 99.89863407041643 C -36.42137682456995 98.21438842108796 -39.19305056031545 93.62931905987911 -43.22431523119062 91.85634557692653 C -47.2555799020658 90.08337209397395 -52.859211771234236 91.28378815669362 -56.646621861493024 89.26079317270099 C -60.43403195175181 87.23779818870835 -64.56413060547611 84.42911972942058 -65.94877577274336 79.71837567297074 C -67.33342094001061 75.0076316165209 -64.95178557440498 66.29499277287604 -64.95449286509654 60.99632883400196 C -64.9572001557881 55.69766489512787 -65.2889823302103 51.76928648472443 -65.96501951689274 47.92639203972624 C -66.64105670357517 44.083497594728044 -67.89040478498866 41.13023178329953 -69.01071598519118 37.938962164012814 C -70.1310271853937 34.7476925447261 -71.04597550037518 31.727463582268374 -72.68688671810786 28.778774324005955 C -74.32779793584054 25.830085065743535 -77.25916191557151 23.311123413928534 -78.85618329158726 20.246826614438298 C -80.453204667603 17.18252981494806 -81.3124729594052 13.76746462947092 -82.26901497420234 10.392993527064533 C -83.22555698899947 7.018522424658146 -83.68071404270303 3.57988735372703 -84.59543538037012 -2.7207967138885896e-14 C -85.51015671803721 -3.5798873537270843 -86.40767432681338 -7.119725230350959 -87.75734300020488 -11.086330595297808 C -89.10701167359639 -15.052935960244657 -91.43006585364357 -19.356214128785144 -92.69344742071914 -23.79963218968112 C -93.95682898779471 -28.243050250577095 -95.55327908372728 -33.33888810054706 -95.33763240265831 -37.74683896067366 C -95.12198572158935 -42.154789820800254 -94.5291634564206 -47.26778777877151 -91.39956733430536 -50.247337350440716 C -88.26997121219011 -53.22688692210992 -81.07455899916243 -53.933108969333624 -76.56005566996681 -55.62413639068889 C -72.0455523407712 -57.315163812044155 -67.9454530783265 -58.631418313344234 -64.31254735913164 -60.39350187857231 C -60.67964163993678 -62.15558544380038 -57.281096561135534 -63.340643533543044 -54.76262135479766 -66.19663778205735 C -52.244146148459784 -69.05263203057166 -51.592904804462016 -74.24773507929656 -49.201696121104376 -77.52946736965816 C -46.81048743774674 -80.81119966001977 -43.30647353688817 -82.46863844736201 -40.41536925465181 -85.887031524227 C -37.524264972415445 -89.30542460109199 -35.38519884029786 -95.54911476680614 -31.855070427686208 -98.03982583084806 C -28.32494201507456 -100.53053689488998 -23.598691659645297 -102.14956463855974 -19.23459877898191 -100.83129790847852 C -14.87050589831852 -99.5130311783973 -9.694334585549399 -93.93283022506594 -5.6705131437058665 -90.13022545036075 C -1.646691701862335 -86.32762067565557 1.8487034290996096 -81.95256181464998 4.90832987207928 -78.01566926024735 C 7.9679563150589505 -74.07877670584472 10.134475814756264 -69.13715004884003 12.687245514172158 -66.50887012394492 C 15.240015213588052 -63.8805901990498 17.35608705775982 -62.740533226962974 20.224948068574637 -62.24598971087664 C 23.093809079389455 -61.75144619479031 26.72689185658124 -63.60370396180156 29.900411579061068 -63.541609027426944 C 33.073931301540895 -63.47951409305233 36.61700552954255 -63.237625623902375 39.26606640345361 -61.87342010462894 C 41.91512727736466 -60.50921458535551 43.48127379606483 -57.35054019490769 45.794776822527375 -55.35637591178632 C 48.108279848989916 -53.36221162866496 49.21484006693716 -50.73224538117402 53.14708456222887 -49.90843440590075 C 57.07932905752058 -49.08462343062748 64.70860017920519 -51.289283781711916 69.38824379427766 -50.41351006014672 C 74.06788740935012 -49.537736338581524 78.14744952987976 -47.25878507042748 81.22494625266367 -44.65379207650957 C 84.30244297544758 -42.04879908259166 86.0597551703009 -38.28952928479776 87.85322413098113 -34.78355209663926 C 89.64669309166136 -31.277574908480766 91.33305571882873 -27.482991368908024 91.98576001674502 -23.61792894755859 C 92.6384643146613 -19.752866526209154 92.26107536894399 -15.529499059802411 91.76944991847888 -11.593177568542647 C 91.27782446801378 -7.656856077282882 89.49158108137513 -1.9321962614237744 89.03600731395437 0 L 89.03600731395437 0" stroke-opacity="1" stroke-linecap="round" stroke-miterlimit="10" stroke-width="2"/></g><g transform="translate(256,256)"><path fill="none" stroke="rgb(0,0,0)" paint-order="fill stroke markers" d=" M 70.87073692561847 0 C 70.0820669997459 1.3925438427705517 67.62978051222818 5.705350923735191 66.13871737038305 8.35526305662331 C 64.64765422853792 11.005175189511428 63.75083490932154 13.650808197591282 61.92435807454767 15.899472797328714 C 60.0978812397738 18.148137397066147 56.98476221731358 19.81555085621877 55.1798563617398 21.84725065504791 C 53.37495050616602 23.878950453877053 52.85324546260482 26.32662406662561 51.09492294110498 28.08967159030356 C 49.33660041960515 29.85271911398151 46.62024813769719 30.979301370992932 44.62992123274078 32.425535797115614 C 42.639594327784366 33.8717702232383 39.99868413781193 34.20225259038774 39.152961511366506 36.76707814703966 C 38.307238884921084 39.33190370369159 40.508249720674605 45.16096159056392 39.555585474068245 47.81448913702715 C 38.602921227461884 50.46801668349038 35.68215142644764 51.41858253265283 33.436976031728356 52.68824342581904 C 31.191800637009077 53.95790431898525 28.677650022877057 55.04321653516996 26.084533105752566 55.43245449602441 C 23.491416188628076 55.821692456878864 20.370484531556283 54.53705076847062 17.878274528981414 55.02367119094575 C 15.386064526406546 55.510291613420875 13.4409351772622 56.87264380607074 11.13127309030335 58.35217703087519 C 8.821611003344502 59.83171025567964 6.658649375196742 61.17865604157331 4.020302007228328 63.90087053977243 C 1.3819546392599151 66.62308503797153 -1.4325683988039182 71.7258920203503 -4.698811117507129 74.68546402006987 C -7.965053836210341 77.64503601978944 -11.991836114951939 80.6611628356422 -15.577154304990941 81.65830253808986 C -19.16247249502994 82.65544224053751 -22.99599015082864 81.92918044506528 -26.21072025774114 80.66830223475579 C -29.425450364653642 79.40742402444629 -31.61955873341483 75.53932918507228 -34.86553494646596 74.09303327623286 C -38.111511159517086 72.64673736739344 -42.73436246845111 73.74655201457861 -45.6865775360479 71.99052678171928 C -48.63879260364469 70.23450154885995 -51.506047754972506 67.39747246033235 -52.578825352046685 63.55688187907686 C -53.651602949120864 59.71629129782137 -51.965390779039325 53.05831838780289 -52.12324311849298 48.94698329418636 C -52.281095457946634 44.83564820056983 -53.00463940881403 41.98428221194632 -53.52593938876861 38.88887131737768 C -54.0472393687232 35.793460422809034 -54.363761053238726 32.97262693908152 -55.25104299822049 30.374517926774487 C -56.13832494320226 27.776408914467453 -57.60069938818206 25.677622963480864 -58.84963105865921 23.30021724353546 C -60.09856272913637 20.922811523590056 -61.63230505629798 18.613860561701213 -62.74463302108344 16.110083607102073 C -63.856960985868895 13.606306652502933 -64.6047706180757 10.962569450457636 -65.52359884737196 8.27755551594062 C -66.44242707666821 5.592541581423603 -67.39468907442959 2.8681964756558065 -68.25760239686095 -2.1953319285402873e-14 C -69.1205157192923 -2.86819647565585 -69.6840289916342 -5.749560409043269 -70.7010787819601 -8.931623337994349 C -71.71812857228602 -12.113686266945429 -73.3655022904955 -15.521848217073728 -74.3599011388164 -19.092377573706496 C -75.3542999871373 -22.662906930339265 -76.77573083516023 -26.78309467750077 -76.66747187188548 -30.354799477790955 C -76.55921290861073 -33.92650427808114 -76.13686980175106 -38.06101489984564 -73.71034735916787 -40.52260637544761 C -71.28382491658468 -42.98419785104958 -65.77460143651425 -43.78453007689007 -62.1083372163863 -45.12434833140277 C -58.44207299625836 -46.46416658591547 -54.68658175227927 -47.16429065875385 -51.71276203840022 -48.56151590252381 C -48.738942324521176 -49.95874114629377 -46.271424128078245 -51.18119848498429 -44.26541893311203 -53.50769979402253 C -42.25941373814582 -55.834201103060764 -41.61765631553229 -59.885016326018004 -39.67673086860294 -62.52052375675324 C -37.73580542167359 -65.15603118748848 -34.96397132430671 -66.60317502922965 -32.61986625153596 -69.32074437843397 C -30.275761178765208 -72.0383137276383 -28.498891007357578 -77.01259552443138 -25.612100431978437 -78.8259398519792 C -22.725309856599296 -80.63928417952702 -18.806236189747512 -81.23365823304665 -15.29912279926112 -80.2008103437209 C -11.792009408774728 -79.16796245439515 -7.772521571642672 -75.61257965306092 -4.5694200890600865 -72.62885251602472 C -1.3663186064775013 -69.64512537898852 1.4458890830352003 -65.42849645297106 3.919486096234389 -62.29844752150371 C 6.393083109433578 -59.16839859003636 8.194808089230097 -55.827705973674654 10.272161990135045 -53.84855892722064 C 12.349515891039992 -51.86941188076662 14.123087544031375 -50.956228809344694 16.383609501664072 -50.42356524277961 C 18.64413145929677 -49.890901676214526 21.30548140586963 -50.76741910127501 23.83529373593123 -50.65257752783015 C 26.36510606599283 -50.53773595438528 29.329798567243127 -50.675772821248444 31.562483482033674 -49.734515802110444 C 33.79516839682422 -48.793258782972444 35.34297186810362 -46.5809088268445 37.2314032246745 -45.005035413002155 C 39.119834581245385 -43.42916199915981 39.84306260582166 -41.05578699055616 42.89307162145897 -40.27927531905639 C 45.94308063709629 -39.50276364755662 51.84660358157724 -41.10330150753485 55.53145731849838 -40.345965384003556 C 59.216311055419524 -39.58862926047226 62.48111163020652 -37.79700911520444 65.00219404298583 -35.735258577868635 C 67.52327645576514 -33.67350804053283 69.21967515588878 -30.780430788129664 70.65795179517427 -27.975462159988716 C 72.09622843445976 -25.170493531847768 73.13313532990304 -22.01732517597226 73.63185387869873 -18.905446809022948 C 74.13057242749443 -15.793568442073635 74.11044924679517 -12.455099759796664 73.65026308794846 -9.304191958292838 C 73.19007692910175 -6.153284156789013 71.3339912860068 -1.550698659715473 70.87073692561847 0 L 70.87073692561847 0" stroke-opacity="1" stroke-linecap="round" stroke-miterlimit="10" stroke-width="2"/></g><g transform="translate(256,256)"><path fill="none" stroke="rgb(0,0,0)" paint-order="fill stroke markers" d=" M 53.03871116994168 0 C 52.50146653285454 1.0488547882035089 50.84828062542671 4.288696547748306 49.81524334741888 6.293128729221053 C 48.782206069411046 8.2975609106938 48.1838146456892 10.32010036719356 46.84048750189471 12.02659308883648 C 45.49716035810021 13.7330858104794 43.159461577202336 15.016676342844729 41.75528048465189 16.53208505907857 C 40.351099392101446 18.047493775312414 39.715980299211886 19.76315459999463 38.41540094659206 21.11904538623953 C 37.11482159397223 22.474936172484433 35.440063467890496 23.572428547212287 33.95180436893292 24.66742977654798 C 32.46354526997534 25.762431005883673 30.173773408127975 25.791738453114014 29.485846352846604 27.6890527622537 C 28.797919297565233 29.586367071393383 30.51317439763246 34.0080315693288 29.82424203724469 36.05131563138609 C 29.13530967685692 38.09459969344338 27.04842970682014 38.998580357582156 25.352252190519987 39.94875713459742 C 23.656074674219834 40.89893391161269 21.604505961298223 41.430173590460925 19.64717693944377 41.752376293477674 C 17.68984791758932 42.074578996494424 15.48181809544987 41.496458822655285 13.608278059393283 41.88197335269791 C 11.734738023336696 42.26748788274054 10.172170219096644 43.069705562168664 8.405936723104253 44.065463473733445 C 6.639703227111862 45.061221385298225 5.005780747361729 45.76076868897595 3.0108770834389365 47.85652082208661 C 1.0159734195161443 49.952272955197266 -1.1056700420357122 54.36233956138101 -3.5634852604325005 56.63997627239739 C -6.021300478829289 58.91761298341377 -9.011779414726908 60.75012451379766 -11.736014226941794 61.52234108818486 C -14.46024903915668 62.29455766257206 -17.454429095599323 62.15427889451482 -19.908894133721823 61.273275718720605 C -22.363359171844323 60.39227254292639 -24.005068591497484 57.34719640393184 -26.46280445567679 56.236322033419576 C -28.920540319856094 55.12544766290731 -32.49312849288263 56.03578292591398 -34.65530931879766 54.60802949564704 C -36.81749014471269 53.1802760653801 -38.65161006104194 50.610735434504726 -39.435889411166976 47.669801451817946 C -40.22016876129201 44.72886746913117 -39.123078924334564 39.95923485721335 -39.36098541954785 36.96242559952637 C -39.59889191476114 33.965616341839386 -40.48462258060226 32.0346740876927 -40.86332838244668 29.688945905696038 C -41.2420341842911 27.343217723699375 -40.97695962147333 24.879892829047897 -41.63322023061438 22.888056507546406 C -42.28948083975543 20.896220186044914 -43.914794069236194 19.543493755937227 -44.800892037292975 17.737927976687082 C -45.686990005349756 15.932362197436937 -46.239815661419634 13.978012124920795 -46.94980803895504 12.05466183204554 C -47.65980041649045 10.131311539170284 -48.25334060272075 8.206936524776474 -49.06084630250543 6.197826219435548 C -49.868352002290116 4.188715914094622 -51.037966601925106 2.161557701768955 -51.79484223766313 -1.665849178776284e-14 C -52.55171787340116 -2.161557701768989 -52.881470377028336 -4.37005119219364 -53.60210011693358 -6.771519991178283 C -54.32272985683882 -9.172988790162925 -55.38947363250748 -11.711614260507867 -56.11862067709459 -14.408812793907876 C -56.8477677216817 -17.106011327307883 -58.01001591509727 -20.232428195732233 -57.976982384456214 -22.954711191578337 C -57.94394885381516 -25.67699418742444 -57.68270223553175 -28.8282121015989 -55.92041949324827 -30.742510768984506 C -54.158136750964786 -32.65680943637011 -50.20032549580121 -33.438721764262844 -47.40328593075533 -34.44050319589196 C -44.60624636570945 -35.44228462752107 -41.427767927788935 -35.710795485822175 -39.138182102973005 -36.75319935875916 C -36.848596278157075 -37.79560323169615 -35.170078187825354 -38.912217405205624 -33.66577098185974 -40.69492643351387 C -32.16146377589412 -42.47763546182212 -31.594268715181954 -45.45730165469889 -30.11233886717929 -47.449453528608636 C -28.630409019176625 -49.441605402518384 -26.56574772567949 -50.62388022175159 -24.77419189384376 -52.64783767697237 C -22.98263606200803 -54.671795132193154 -21.5850848637059 -58.37125067801072 -19.363003876164903 -59.59319825993331 C -17.140922888623905 -60.8151458418559 -14.091947254331572 -60.74174627138232 -11.441705968597779 -59.97952316850791 C -8.791464682863985 -59.2173000656335 -5.85925852480718 -57.21617720714362 -3.4615561617621484 -55.019859642686875 C -1.0638537987171168 -52.823542078230126 1.0630403080254318 -49.13294639252512 2.944508209672412 -46.80161778176743 C 4.825976111319392 -44.470289171009746 6.235250375861263 -42.4221053257191 7.8272512481197305 -41.03188797814076 C 9.419252120378198 -39.641670630562416 10.820636597489646 -38.96524951045847 12.496513443223217 -38.46031369629736 C 14.172390288956787 -37.955377882136254 15.989341704207442 -38.14727343965557 17.88251232252116 -38.00227309317412 C 19.775682940834876 -37.857272746692665 22.090569473548378 -38.18783701957394 23.855537153105516 -37.590311617408645 C 25.620504832662654 -36.99278621524335 27.01655393877366 -35.58147871093599 28.472318399863997 -34.41712068018234 C 29.928082860954333 -33.252762649428696 30.368461536160247 -31.278492977042117 32.59012391964754 -30.604163432886782 C 34.81178630313483 -29.929833888731448 39.08385099428085 -30.99126597247026 41.802292700787746 -30.371143415250334 C 44.52073440729464 -29.751020858030408 46.965742748063704 -28.420702440038664 48.90077415868892 -26.88342808956723 C 50.83580556931413 -25.346153739095794 52.327158015255925 -23.25680757369197 53.412481164539024 -21.14749731242172 C 54.49780431382212 -19.03818705115147 55.04725016890277 -16.58138645038418 55.412713054387524 -14.227566521945743 C 55.77817593987228 -11.873746593507308 56.00092545818852 -9.395838828782066 55.60525847744754 -7.024577741791109 C 55.209591496706565 -4.653316654800152 53.46646905452599 -1.170762956965185 53.03871116994168 0 L 53.03871116994168 0" stroke-opacity="1" stroke-linecap="round" stroke-miterlimit="10" stroke-width="2"/></g><g transform="translate(256,256)"><path fill="none" stroke="rgb(0,0,0)" paint-order="fill stroke markers" d=" M 35.58040813027386 0 C 35.25453133982858 0.7079739949390936 34.26245071718258 2.88889297099996 33.62514738760218 4.247843969634562 C 32.987844058021786 5.606794968269163 32.639297896444454 6.992313222780371 31.756588152791476 8.153705991807612 C 30.8738784091385 9.315098760834854 29.301621373993846 10.200193758768487 28.328888925684307 11.216200583798006 C 27.356156477374768 12.232207408827525 26.7835685567579 13.31603533329294 25.92019346293425 14.249746941984732 C 25.0568183691106 15.183458550676525 24.147924019669983 16.075039448538554 23.14863836274242 16.81847023594876 C 22.14935270581486 17.561901023358963 20.422095945539795 17.45127547019984 19.924479521368873 18.710331666445963 C 19.426863097197952 19.969387862692088 20.61434638102815 22.969839622815638 20.162939817716904 24.372807413425516 C 19.71153325440566 25.775775204035394 18.363818869794226 26.48802223522938 17.216040141501402 27.128138410105233 C 16.068261413208578 27.768254584981086 14.597350071054045 27.969814551568607 13.27626744795996 28.21350446268063 C 11.955184824865874 28.45719437379265 10.553396299280145 28.318433741499682 9.289544402936885 28.590277876777368 C 8.025692506593625 28.862122012055053 6.904295118141659 29.251272819643567 5.693156069900403 29.844569274346732 C 4.482017021659146 30.437865729049896 3.375179956668215 30.708946321031465 2.0227101134893473 32.150056604996344 C 0.6702402703104797 33.591166888961226 -0.7630151593701082 36.921873616442284 -2.421662989172803 38.491230978136 C -4.080310818975498 40.06058833982972 -6.073805169165427 41.02897362783719 -7.929176865326823 41.56620077515867 C -9.784548561488219 42.10342792248015 -11.873648212787304 42.26319861416034 -13.553893166141181 41.714593862064866 C -15.234138119495059 41.165989109969395 -16.343192139297656 39.03993043934497 -18.010646585450086 38.274572262585835 C -19.678101031602516 37.5092140858267 -22.138497087703534 38.156384685558166 -23.55861984305575 37.12244480151007 C -24.97874259840797 36.088504917461975 -26.013887922393327 34.084877326587105 -26.5313831175634 32.070932958297284 C -27.048878312733475 30.056988590007464 -26.424959416095355 26.9978617200762 -26.6635910140762 25.03877859177116 C -26.902222612057045 23.079695463466116 -27.71532044110613 21.910233817691235 -27.96317270544846 20.31643418846704 C -28.21102496979079 18.72263455924284 -27.719469837585464 16.846081378822632 -28.15070460013018 15.475980816425977 C -28.581939362674895 14.105880254029323 -29.992319057864325 13.327178164534983 -30.550581280716763 12.095830814087117 C -31.1088435035692 10.864483463639251 -31.105010736246594 9.410695332204357 -31.500277937244814 8.087896713738784 C -31.895545138243033 6.765098095273212 -32.30252502153603 5.507021888916811 -32.92218448670608 4.159039103293678 C -33.54184395187613 2.8110563176705456 -34.630656904461055 1.4605747090344368 -35.218234728265145 -1.1327048189630298e-14 C -35.805812552069234 -1.4605747090344594 -35.987797446168784 -2.979254421276818 -36.447651429530616 -4.60440915091301 C -36.90750541289245 -6.229563880549201 -37.5038356345895 -7.925741210921104 -37.97735862843616 -9.75092837781716 C -38.450881622282814 -11.576115544713216 -39.279987369644765 -13.696142998188717 -39.28878939261056 -15.555532152289349 C -39.297591415576356 -17.414921306389978 -39.1733751988513 -19.572942571709188 -38.03017076623093 -20.907263302420944 C -36.88696633361056 -22.2415840331327 -34.33858818536322 -22.886576675866472 -32.42956279688835 -23.56145653655988 C -30.520537408413475 -24.23633639725329 -28.15494952905067 -24.25861714452454 -26.576018435381695 -24.956542466581407 C -24.99708734171272 -25.654467788638275 -23.968925183247194 -26.52506698831374 -22.955976234874495 -27.749008468901085 C -21.943027286501795 -28.97294994948843 -21.512277728689266 -30.949130414192602 -20.498324745145496 -32.300191350105486 C -19.484371761601725 -33.65125228601837 -18.102528828170033 -34.51056312213566 -16.872258333611875 -35.855374084378376 C -15.641987839053717 -37.200185046621094 -14.650257516325722 -39.642887582071026 -13.11670177779655 -40.3690571235618 C -11.583146039267378 -41.09522666505258 -9.465570211552759 -40.718319657904416 -7.6709239024368445 -40.21239133332305 C -5.87627759332093 -39.70646300874168 -3.957993857420502 -38.779502709380814 -2.348823923101064 -37.33348717607359 C -0.7396539887816262 -35.887471642766364 0.7011781800553487 -33.08541785304175 1.9840957034797826 -31.536298133479708 C 3.2670132269042167 -29.987178413917672 4.253914501496592 -28.907736601761176 5.34868121744554 -28.03876885870137 C 6.443447933394488 -27.169801115641565 7.437257032491756 -26.730770325016763 8.552695999173473 -26.32249167512087 C 9.66813496585519 -25.914213025224974 10.774028610862223 -25.733106325619477 12.041315017535844 -25.589096959325992 C 13.308601424209465 -25.445087593032508 14.911616074328604 -25.79267398229204 16.156414439215204 -25.458435477359963 C 17.401212804101803 -25.124196972427885 18.499834415140022 -24.349383916685127 19.510105206855446 -23.58366592973353 C 20.52037599857087 -22.817947942781935 20.767326114980577 -21.378246939588685 22.218039189507756 -20.86412755565038 C 23.668752264034936 -20.350008171712076 26.424169596284933 -20.95638064421332 28.214383654018516 -20.498949626103716 C 30.004597711752098 -20.041518607994114 31.635353668998327 -19.150025508297414 32.95932353590925 -18.119541446992773 C 34.28329340282017 -17.089057385688132 35.42363608972977 -15.736944818342106 36.158202855484035 -14.316045258275869 C 36.8927696212383 -12.895145698209632 37.119339060706 -11.187592412135372 37.36672413043484 -9.594144086595348 C 37.61410920016368 -8.000695761055324 37.94023260721725 -6.354379319468283 37.642513273857084 -4.7553553050357245 C 37.34479394049692 -3.156331290603166 35.92409232087106 -0.792559217505954 35.58040813027386 0 L 35.58040813027386 0" stroke-opacity="1" stroke-linecap="round" stroke-miterlimit="10" stroke-width="2"/></g><g transform="translate(256,256)"><path fill="none" stroke="rgb(0,0,0)" paint-order="fill stroke markers" d=" M 18.51263407709163 0 C 18.359666638501448 0.3704573112869469 17.89848776416167 1.5085039813280599 17.594829445550534 2.2227438677216815 C 17.2911711269394 2.936983754115303 17.13897790162539 3.672341044726997 16.69068416542483 4.285439318361729 C 16.242390429224272 4.898537591996461 15.423172950491375 5.371107658914 14.905067028347194 5.901333509530073 C 14.386961106203012 6.431559360146147 14.027490031605382 6.96912128064326 13.58204863255974 7.466794422058169 C 13.136607233514098 7.964467563473078 12.753967888190031 8.49587334066952 12.23241863407334 8.887372358019528 C 11.71086937995665 9.278871375369535 10.729210596818746 9.166787938382768 10.452753107859595 9.815788526158212 C 10.176295618900443 10.464789113933655 10.80672286668515 12.039416807453321 10.57367370031843 12.781375884672187 C 10.340624533951711 13.523334961891052 9.656117215008292 13.931329585674398 9.054458109659281 14.26754298947141 C 8.45279900431027 14.603756393268423 7.6530222850504535 14.653577857890202 6.963719068224367 14.798656307454264 C 6.27441585139828 14.943734757018326 5.5806544672803655 14.99068172677842 4.91863880870276 15.138013686855784 C 4.256623150125155 15.285345646933148 3.635587367115167 15.411216362490732 2.9916251167587364 15.682648067918448 C 2.347662866402306 15.954079773346164 1.7660277737812917 16.00186146667811 1.0548653065641787 16.766603919422078 C 0.34370283934706547 17.531346372166045 -0.4068417404392253 19.434291607542228 -1.2753496865439427 20.271102784382244 C -2.1438576326486602 21.10791396122226 -3.1766812402132865 21.497206486803087 -4.156182370064125 21.78747098046218 C -5.135683499914964 22.077735474121276 -6.260550656548372 22.2766949086659 -7.1523564656489755 22.01268974633682 C -8.044162274749578 21.748684584007744 -8.63033616534957 20.612408262034982 -9.507017224667743 20.203440006487725 C -10.383698283985916 19.794471750940467 -11.68781032110192 20.13485504132659 -12.412442821558015 19.558880213053275 C -13.137075322014109 18.98290538477996 -13.58729416521798 17.81351161397382 -13.854812227404304 16.74759103684784 C -14.122330289590629 15.68167045972186 -13.854726403397066 14.158637737504662 -14.017551194675967 13.16335675029739 C -14.180375985954868 12.168075763090119 -14.704924669260125 11.615700059193047 -14.831760975077703 10.775905113604214 C -14.958597280895281 9.93611016801538 -14.56124224438761 8.855807236073844 -14.778569029581439 8.124587076764387 C -14.995895814775267 7.39336691745493 -15.865738109746893 7.040946737502177 -16.135721686240668 6.388584157747473 C -16.405705262734443 5.736221577992769 -16.232587779708222 4.914483816458185 -16.398470488544096 4.210411598236161 C -16.56435319737997 3.5063393800141363 -16.771270206522434 2.8658861147880192 -17.131017939255905 2.164150848415325 C -17.490765671989376 1.4624155820426306 -18.207792619113086 0.7654933208165634 -18.55695688494492 -5.968372535150546e-15 C -18.906121150776755 -0.7654933208165754 -18.996118075386384 -1.5756817378857177 -19.226003534246907 -2.4288090764840913 C -19.45588899310743 -3.281936415082465 -19.701356629259827 -4.161871355094911 -19.936269638108058 -5.118764031590247 C -20.17118264695629 -6.0756567080855834 -20.61623717903698 -7.186036607576676 -20.63548158733629 -8.170165135456108 C -20.6547259956356 -9.15429366333554 -20.625067995696615 -10.303020241938128 -20.051736087903926 -11.02353519886684 C -19.478404180111237 -11.744050155795552 -18.20305164615289 -12.138368386244874 -17.195490140580162 -12.49325487702838 C -16.187928635007435 -12.848141367811884 -14.84940851350459 -12.789829199255198 -14.006367054467558 -13.152854143567875 C -13.163325595430527 -13.515879087880553 -12.667368022943792 -14.020475661276125 -12.137241386357971 -14.67140454290444 C -11.60711474977215 -15.322333424532756 -11.36318290411683 -16.34724282709793 -10.82560723495263 -17.058427433337766 C -10.28803156578843 -17.769612039577602 -9.568411076521093 -18.24949785886391 -8.911787371372771 -18.938512180343448 C -8.25516366622445 -19.627526501822985 -7.70625964096485 -20.86338711511028 -6.885865004062702 -21.192513362214978 C -6.065470367160554 -21.521639609319674 -4.931309968439589 -21.17499303522728 -3.9894195499598832 -20.91326966297162 C -3.047529131480178 -20.651546290715956 -2.0723599778226545 -20.35900725736174 -1.2345224931844698 -19.62217312868101 C -0.3966850085462851 -18.88533900000028 0.3594050170663149 -17.28597531178611 1.037605357869226 -16.492264890887228 C 1.715805698672137 -15.698554469988345 2.2505010637296805 -15.278468082110457 2.8346795516329957 -14.859910603287712 C 3.418858039536311 -14.441353124464968 3.965473429401363 -14.226953164639152 4.542676285289116 -13.980920017950757 C 5.119879141176869 -13.734886871262361 5.641636048556774 -13.486745023758573 6.297896686959514 -13.383711723157335 C 6.954157325362254 -13.280678422556097 7.803710406395851 -13.5067466742867 8.480240115705557 -13.362720214343334 C 9.156769825015264 -13.218693754399967 9.811156033343963 -12.906775097952664 10.357074942817755 -12.519552963497134 C 10.902993852291548 -12.132330829041603 11.019975408062999 -11.337262871900734 11.755753572548317 -11.039387407610148 C 12.491531737033634 -10.741511943319562 13.86171005423766 -10.994772686227197 14.771743929729665 -10.73230017775362 C 15.68177780522167 -10.469827669280043 16.518500491453263 -10.002368695403725 17.215956825500346 -9.464552356768689 C 17.913413159547428 -8.926736018133653 18.570726999451328 -8.247064769952564 18.956481934012164 -7.50540214594341 C 19.342236868573 -6.763739521934258 19.395720382688857 -5.849325295641801 19.530486432865366 -5.014576612713772 C 19.665252483041876 -4.179827929785743 19.934720294366834 -3.3326728171608666 19.76507823507121 -2.496910048375238 C 19.59543617577559 -1.661147279589609 18.721374770088225 -0.4161516747292063 18.51263407709163 0 L 18.51263407709163 0" stroke-opacity="1" stroke-linecap="round" stroke-miterlimit="10" stroke-width="2"/></g></g></svg>